<svg width="800" height="600" xmlns="http://www.w3.org/2000/svg" version="1.1"><g transform="translate(50,0)"><text x="-50" y="-7" style="font-size: 10px; font-family: Arial,Helvetica;">null</text><g class="y axis" style="font-size: 10px; font-family: Arial,Helvetica;" transform="translate(0,0)"><g class="tick" style="opacity: 1;" transform="translate(0,550)"><line x2="-6" y2="0" style="shape-rendering: crispedges; fill: none; stroke: rgb(204, 204, 204);"></line><text dy=".32em" style="text-anchor: end;" x="-9" y="0">0.00</text></g><g class="tick" style="opacity: 1;" transform="translate(0,536.5853658536586)"><line x2="-6" y2="0" style="shape-rendering: crispedges; fill: none; stroke: rgb(204, 204, 204);"></line><text dy=".32em" style="text-anchor: end;" x="-9" y="0">0.01</text></g><g class="tick" style="opacity: 1;" transform="translate(0,523.170731707317)"><line x2="-6" y2="0" style="shape-rendering: crispedges; fill: none; stroke: rgb(204, 204, 204);"></line><text dy=".32em" style="text-anchor: end;" x="-9" y="0">0.02</text></g><g class="tick" style="opacity: 1;" transform="translate(0,509.75609756097566)"><line x2="-6" y2="0" style="shape-rendering: crispedges; fill: none; stroke: rgb(204, 204, 204);"></line><text dy=".32em" style="text-anchor: end;" x="-9" y="0">0.03</text></g><g class="tick" style="opacity: 1;" transform="translate(0,496.3414634146342)"><line x2="-6" y2="0" style="shape-rendering: crispedges; fill: none; stroke: rgb(204, 204, 204);"></line><text dy=".32em" style="text-anchor: end;" x="-9" y="0">0.04</text></g><g class="tick" style="opacity: 1;" transform="translate(0,482.9268292682927)"><line x2="-6" y2="0" style="shape-rendering: crispedges; fill: none; stroke: rgb(204, 204, 204);"></line><text dy=".32em" style="text-anchor: end;" x="-9" y="0">0.05</text></g><g class="tick" style="opacity: 1;" transform="translate(0,469.5121951219512)"><line x2="-6" y2="0" style="shape-rendering: crispedges; fill: none; stroke: rgb(204, 204, 204);"></line><text dy=".32em" style="text-anchor: end;" x="-9" y="0">0.06</text></g><g class="tick" style="opacity: 1;" transform="translate(0,456.0975609756097)"><line x2="-6" y2="0" style="shape-rendering: crispedges; fill: none; stroke: rgb(204, 204, 204);"></line><text dy=".32em" style="text-anchor: end;" x="-9" y="0">0.07</text></g><g class="tick" style="opacity: 1;" transform="translate(0,442.6829268292683)"><line x2="-6" y2="0" style="shape-rendering: crispedges; fill: none; stroke: rgb(204, 204, 204);"></line><text dy=".32em" style="text-anchor: end;" x="-9" y="0">0.08</text></g><g class="tick" style="opacity: 1;" transform="translate(0,429.26829268292687)"><line x2="-6" y2="0" style="shape-rendering: crispedges; fill: none; stroke: rgb(204, 204, 204);"></line><text dy=".32em" style="text-anchor: end;" x="-9" y="0">0.09</text></g><g class="tick" style="opacity: 1;" transform="translate(0,415.8536585365854)"><line x2="-6" y2="0" style="shape-rendering: crispedges; fill: none; stroke: rgb(204, 204, 204);"></line><text dy=".32em" style="text-anchor: end;" x="-9" y="0">0.10</text></g><g class="tick" style="opacity: 1;" transform="translate(0,402.4390243902439)"><line x2="-6" y2="0" style="shape-rendering: crispedges; fill: none; stroke: rgb(204, 204, 204);"></line><text dy=".32em" style="text-anchor: end;" x="-9" y="0">0.11</text></g><g class="tick" style="opacity: 1;" transform="translate(0,389.0243902439024)"><line x2="-6" y2="0" style="shape-rendering: crispedges; fill: none; stroke: rgb(204, 204, 204);"></line><text dy=".32em" style="text-anchor: end;" x="-9" y="0">0.12</text></g><g class="tick" style="opacity: 1;" transform="translate(0,375.60975609756093)"><line x2="-6" y2="0" style="shape-rendering: crispedges; fill: none; stroke: rgb(204, 204, 204);"></line><text dy=".32em" style="text-anchor: end;" x="-9" y="0">0.13</text></g><g class="tick" style="opacity: 1;" transform="translate(0,362.19512195121945)"><line x2="-6" y2="0" style="shape-rendering: crispedges; fill: none; stroke: rgb(204, 204, 204);"></line><text dy=".32em" style="text-anchor: end;" x="-9" y="0">0.14</text></g><g class="tick" style="opacity: 1;" transform="translate(0,348.78048780487813)"><line x2="-6" y2="0" style="shape-rendering: crispedges; fill: none; stroke: rgb(204, 204, 204);"></line><text dy=".32em" style="text-anchor: end;" x="-9" y="0">0.15</text></g><g class="tick" style="opacity: 1;" transform="translate(0,335.36585365853665)"><line x2="-6" y2="0" style="shape-rendering: crispedges; fill: none; stroke: rgb(204, 204, 204);"></line><text dy=".32em" style="text-anchor: end;" x="-9" y="0">0.16</text></g><g class="tick" style="opacity: 1;" transform="translate(0,321.95121951219517)"><line x2="-6" y2="0" style="shape-rendering: crispedges; fill: none; stroke: rgb(204, 204, 204);"></line><text dy=".32em" style="text-anchor: end;" x="-9" y="0">0.17</text></g><g class="tick" style="opacity: 1;" transform="translate(0,308.5365853658537)"><line x2="-6" y2="0" style="shape-rendering: crispedges; fill: none; stroke: rgb(204, 204, 204);"></line><text dy=".32em" style="text-anchor: end;" x="-9" y="0">0.18</text></g><g class="tick" style="opacity: 1;" transform="translate(0,295.1219512195122)"><line x2="-6" y2="0" style="shape-rendering: crispedges; fill: none; stroke: rgb(204, 204, 204);"></line><text dy=".32em" style="text-anchor: end;" x="-9" y="0">0.19</text></g><g class="tick" style="opacity: 1;" transform="translate(0,281.7073170731707)"><line x2="-6" y2="0" style="shape-rendering: crispedges; fill: none; stroke: rgb(204, 204, 204);"></line><text dy=".32em" style="text-anchor: end;" x="-9" y="0">0.20</text></g><g class="tick" style="opacity: 1;" transform="translate(0,268.29268292682934)"><line x2="-6" y2="0" style="shape-rendering: crispedges; fill: none; stroke: rgb(204, 204, 204);"></line><text dy=".32em" style="text-anchor: end;" x="-9" y="0">0.21</text></g><g class="tick" style="opacity: 1;" transform="translate(0,254.87804878048786)"><line x2="-6" y2="0" style="shape-rendering: crispedges; fill: none; stroke: rgb(204, 204, 204);"></line><text dy=".32em" style="text-anchor: end;" x="-9" y="0">0.22</text></g><g class="tick" style="opacity: 1;" transform="translate(0,241.46341463414637)"><line x2="-6" y2="0" style="shape-rendering: crispedges; fill: none; stroke: rgb(204, 204, 204);"></line><text dy=".32em" style="text-anchor: end;" x="-9" y="0">0.23</text></g><g class="tick" style="opacity: 1;" transform="translate(0,228.0487804878049)"><line x2="-6" y2="0" style="shape-rendering: crispedges; fill: none; stroke: rgb(204, 204, 204);"></line><text dy=".32em" style="text-anchor: end;" x="-9" y="0">0.24</text></g><g class="tick" style="opacity: 1;" transform="translate(0,214.63414634146343)"><line x2="-6" y2="0" style="shape-rendering: crispedges; fill: none; stroke: rgb(204, 204, 204);"></line><text dy=".32em" style="text-anchor: end;" x="-9" y="0">0.25</text></g><g class="tick" style="opacity: 1;" transform="translate(0,201.21951219512195)"><line x2="-6" y2="0" style="shape-rendering: crispedges; fill: none; stroke: rgb(204, 204, 204);"></line><text dy=".32em" style="text-anchor: end;" x="-9" y="0">0.26</text></g><g class="tick" style="opacity: 1;" transform="translate(0,187.80487804878047)"><line x2="-6" y2="0" style="shape-rendering: crispedges; fill: none; stroke: rgb(204, 204, 204);"></line><text dy=".32em" style="text-anchor: end;" x="-9" y="0">0.27</text></g><g class="tick" style="opacity: 1;" transform="translate(0,174.39024390243898)"><line x2="-6" y2="0" style="shape-rendering: crispedges; fill: none; stroke: rgb(204, 204, 204);"></line><text dy=".32em" style="text-anchor: end;" x="-9" y="0">0.28</text></g><g class="tick" style="opacity: 1;" transform="translate(0,160.97560975609764)"><line x2="-6" y2="0" style="shape-rendering: crispedges; fill: none; stroke: rgb(204, 204, 204);"></line><text dy=".32em" style="text-anchor: end;" x="-9" y="0">0.29</text></g><g class="tick" style="opacity: 1;" transform="translate(0,147.56097560975616)"><line x2="-6" y2="0" style="shape-rendering: crispedges; fill: none; stroke: rgb(204, 204, 204);"></line><text dy=".32em" style="text-anchor: end;" x="-9" y="0">0.30</text></g><g class="tick" style="opacity: 1;" transform="translate(0,134.1463414634147)"><line x2="-6" y2="0" style="shape-rendering: crispedges; fill: none; stroke: rgb(204, 204, 204);"></line><text dy=".32em" style="text-anchor: end;" x="-9" y="0">0.31</text></g><g class="tick" style="opacity: 1;" transform="translate(0,120.73170731707322)"><line x2="-6" y2="0" style="shape-rendering: crispedges; fill: none; stroke: rgb(204, 204, 204);"></line><text dy=".32em" style="text-anchor: end;" x="-9" y="0">0.32</text></g><g class="tick" style="opacity: 1;" transform="translate(0,107.31707317073175)"><line x2="-6" y2="0" style="shape-rendering: crispedges; fill: none; stroke: rgb(204, 204, 204);"></line><text dy=".32em" style="text-anchor: end;" x="-9" y="0">0.33</text></g><g class="tick" style="opacity: 1;" transform="translate(0,93.90243902439026)"><line x2="-6" y2="0" style="shape-rendering: crispedges; fill: none; stroke: rgb(204, 204, 204);"></line><text dy=".32em" style="text-anchor: end;" x="-9" y="0">0.34</text></g><g class="tick" style="opacity: 1;" transform="translate(0,80.48780487804885)"><line x2="-6" y2="0" style="shape-rendering: crispedges; fill: none; stroke: rgb(204, 204, 204);"></line><text dy=".32em" style="text-anchor: end;" x="-9" y="0">0.35</text></g><g class="tick" style="opacity: 1;" transform="translate(0,67.07317073170738)"><line x2="-6" y2="0" style="shape-rendering: crispedges; fill: none; stroke: rgb(204, 204, 204);"></line><text dy=".32em" style="text-anchor: end;" x="-9" y="0">0.36</text></g><g class="tick" style="opacity: 1;" transform="translate(0,53.6585365853659)"><line x2="-6" y2="0" style="shape-rendering: crispedges; fill: none; stroke: rgb(204, 204, 204);"></line><text dy=".32em" style="text-anchor: end;" x="-9" y="0">0.37</text></g><g class="tick" style="opacity: 1;" transform="translate(0,40.243902439024424)"><line x2="-6" y2="0" style="shape-rendering: crispedges; fill: none; stroke: rgb(204, 204, 204);"></line><text dy=".32em" style="text-anchor: end;" x="-9" y="0">0.38</text></g><g class="tick" style="opacity: 1;" transform="translate(0,26.82926829268295)"><line x2="-6" y2="0" style="shape-rendering: crispedges; fill: none; stroke: rgb(204, 204, 204);"></line><text dy=".32em" style="text-anchor: end;" x="-9" y="0">0.39</text></g><g class="tick" style="opacity: 1;" transform="translate(0,13.414634146341475)"><line x2="-6" y2="0" style="shape-rendering: crispedges; fill: none; stroke: rgb(204, 204, 204);"></line><text dy=".32em" style="text-anchor: end;" x="-9" y="0">0.40</text></g><g class="tick" style="opacity: 1;" transform="translate(0,6.106226635438361e-14)"><line x2="-6" y2="0" style="shape-rendering: crispedges; fill: none; stroke: rgb(204, 204, 204);"></line><text dy=".32em" style="text-anchor: end;" x="-9" y="0">0.41</text></g><path class="domain" d="M-6,0H0V550H-6" style="shape-rendering: crispedges; fill: none; stroke: rgb(204, 204, 204);"></path></g><rect transform="translate(0,0)" class="bar" x="12" width="25" y="187.80487804878047" height="362.19512195121956" style="fill: rgb(105, 191, 191);"></rect><rect transform="translate(0,0)" class="bar" x="40" width="25" y="496.3414634146342" height="53.65853658536582" style="fill: rgb(148, 105, 191);"></rect><rect transform="translate(0,0)" class="bar" x="68" width="25" y="402.4390243902439" height="147.5609756097561" style="fill: rgb(148, 105, 191);"></rect><rect transform="translate(0,0)" class="bar" x="96" width="25" y="375.60975609756093" height="174.39024390243907" style="fill: rgb(148, 105, 191);"></rect><rect transform="translate(0,0)" class="bar" x="124" width="25" y="0" height="550" style="fill: rgb(191, 105, 105);"></rect><rect transform="translate(0,0)" class="bar" x="152" width="25" y="482.9268292682927" height="67.07317073170731" style="fill: rgb(148, 105, 191);"></rect><rect transform="translate(0,0)" class="bar" x="180" width="25" y="456.0975609756097" height="93.90243902439028" style="fill: rgb(148, 105, 191);"></rect><rect transform="translate(0,0)" class="bar" x="208" width="25" y="389.0243902439024" height="160.97560975609758" style="fill: rgb(148, 105, 191);"></rect><rect transform="translate(0,0)" class="bar" x="236" width="25" y="228.0487804878049" height="321.9512195121951" style="fill: rgb(148, 105, 191);"></rect><rect transform="translate(0,0)" class="bar" x="264" width="25" y="550" height="0" style="fill: rgb(148, 105, 191);"></rect><rect transform="translate(0,0)" class="bar" x="292" width="25" y="523.170731707317" height="26.82926829268297" style="fill: rgb(148, 105, 191);"></rect><rect transform="translate(0,0)" class="bar" x="320" width="25" y="362.19512195121945" height="187.80487804878055" style="fill: rgb(148, 105, 191);"></rect><rect transform="translate(0,0)" class="bar" x="348" width="25" y="442.6829268292683" height="107.3170731707317" style="fill: rgb(148, 105, 191);"></rect><rect transform="translate(0,0)" class="bar" x="376" width="25" y="228.0487804878049" height="321.9512195121951" style="fill: rgb(148, 105, 191);"></rect><rect transform="translate(0,0)" class="bar" x="404" width="25" y="268.2926829268293" height="281.7073170731707" style="fill: rgb(148, 105, 191);"></rect><rect transform="translate(0,0)" class="bar" x="432" width="25" y="469.5121951219512" height="80.48780487804879" style="fill: rgb(148, 105, 191);"></rect><rect transform="translate(0,0)" class="bar" x="460" width="25" y="536.5853658536586" height="13.414634146341427" style="fill: rgb(148, 105, 191);"></rect><rect transform="translate(0,0)" class="bar" x="488" width="25" y="295.1219512195122" height="254.8780487804878" style="fill: rgb(148, 105, 191);"></rect><rect transform="translate(0,0)" class="bar" x="516" width="25" y="308.5365853658537" height="241.46341463414632" style="fill: rgb(148, 105, 191);"></rect><rect transform="translate(0,0)" class="bar" x="544" width="25" y="268.29268292682934" height="281.70731707317066" style="fill: rgb(148, 191, 105);"></rect><rect transform="translate(0,0)" class="bar" x="572" width="25" y="415.8536585365854" height="134.14634146341461" style="fill: rgb(148, 105, 191);"></rect><rect transform="translate(0,0)" class="bar" x="600" width="25" y="496.3414634146342" height="53.65853658536582" style="fill: rgb(148, 105, 191);"></rect><rect transform="translate(0,0)" class="bar" x="628" width="25" y="496.3414634146342" height="53.65853658536582" style="fill: rgb(148, 105, 191);"></rect><rect transform="translate(0,0)" class="bar" x="656" width="25" y="550" height="0" style="fill: rgb(148, 105, 191);"></rect><rect transform="translate(0,0)" class="bar" x="684" width="25" y="523.170731707317" height="26.82926829268297" style="fill: rgb(148, 105, 191);"></rect><rect transform="translate(0,0)" class="bar" x="712" width="25" y="523.170731707317" height="26.82926829268297" style="fill: rgb(148, 105, 191);"></rect></g><g class="x axis" style="font-size: 10px; font-family: Arial,Helvetica;" transform="translate(50,550)"><g class="tick" style="opacity: 1;" transform="translate(24.5,0)"><line y2="6" x2="0" style="shape-rendering: crispedges; fill: none; stroke: rgb(204, 204, 204);"></line><text dy=".71em" style="text-anchor: middle;" y="9" x="0">a</text></g><g class="tick" style="opacity: 1;" transform="translate(52.5,0)"><line y2="6" x2="0" style="shape-rendering: crispedges; fill: none; stroke: rgb(204, 204, 204);"></line><text dy=".71em" style="text-anchor: middle;" y="9" x="0">b</text></g><g class="tick" style="opacity: 1;" transform="translate(80.5,0)"><line y2="6" x2="0" style="shape-rendering: crispedges; fill: none; stroke: rgb(204, 204, 204);"></line><text dy=".71em" style="text-anchor: middle;" y="9" x="0">c</text></g><g class="tick" style="opacity: 1;" transform="translate(108.5,0)"><line y2="6" x2="0" style="shape-rendering: crispedges; fill: none; stroke: rgb(204, 204, 204);"></line><text dy=".71em" style="text-anchor: middle;" y="9" x="0">d</text></g><g class="tick" style="opacity: 1;" transform="translate(136.5,0)"><line y2="6" x2="0" style="shape-rendering: crispedges; fill: none; stroke: rgb(204, 204, 204);"></line><text dy=".71em" style="text-anchor: middle;" y="9" x="0">e</text></g><g class="tick" style="opacity: 1;" transform="translate(164.5,0)"><line y2="6" x2="0" style="shape-rendering: crispedges; fill: none; stroke: rgb(204, 204, 204);"></line><text dy=".71em" style="text-anchor: middle;" y="9" x="0">f</text></g><g class="tick" style="opacity: 1;" transform="translate(192.5,0)"><line y2="6" x2="0" style="shape-rendering: crispedges; fill: none; stroke: rgb(204, 204, 204);"></line><text dy=".71em" style="text-anchor: middle;" y="9" x="0">g</text></g><g class="tick" style="opacity: 1;" transform="translate(220.5,0)"><line y2="6" x2="0" style="shape-rendering: crispedges; fill: none; stroke: rgb(204, 204, 204);"></line><text dy=".71em" style="text-anchor: middle;" y="9" x="0">h</text></g><g class="tick" style="opacity: 1;" transform="translate(248.5,0)"><line y2="6" x2="0" style="shape-rendering: crispedges; fill: none; stroke: rgb(204, 204, 204);"></line><text dy=".71em" style="text-anchor: middle;" y="9" x="0">i</text></g><g class="tick" style="opacity: 1;" transform="translate(276.5,0)"><line y2="6" x2="0" style="shape-rendering: crispedges; fill: none; stroke: rgb(204, 204, 204);"></line><text dy=".71em" style="text-anchor: middle;" y="9" x="0">j</text></g><g class="tick" style="opacity: 1;" transform="translate(304.5,0)"><line y2="6" x2="0" style="shape-rendering: crispedges; fill: none; stroke: rgb(204, 204, 204);"></line><text dy=".71em" style="text-anchor: middle;" y="9" x="0">k</text></g><g class="tick" style="opacity: 1;" transform="translate(332.5,0)"><line y2="6" x2="0" style="shape-rendering: crispedges; fill: none; stroke: rgb(204, 204, 204);"></line><text dy=".71em" style="text-anchor: middle;" y="9" x="0">l</text></g><g class="tick" style="opacity: 1;" transform="translate(360.5,0)"><line y2="6" x2="0" style="shape-rendering: crispedges; fill: none; stroke: rgb(204, 204, 204);"></line><text dy=".71em" style="text-anchor: middle;" y="9" x="0">m</text></g><g class="tick" style="opacity: 1;" transform="translate(388.5,0)"><line y2="6" x2="0" style="shape-rendering: crispedges; fill: none; stroke: rgb(204, 204, 204);"></line><text dy=".71em" style="text-anchor: middle;" y="9" x="0">n</text></g><g class="tick" style="opacity: 1;" transform="translate(416.5,0)"><line y2="6" x2="0" style="shape-rendering: crispedges; fill: none; stroke: rgb(204, 204, 204);"></line><text dy=".71em" style="text-anchor: middle;" y="9" x="0">o</text></g><g class="tick" style="opacity: 1;" transform="translate(444.5,0)"><line y2="6" x2="0" style="shape-rendering: crispedges; fill: none; stroke: rgb(204, 204, 204);"></line><text dy=".71em" style="text-anchor: middle;" y="9" x="0">p</text></g><g class="tick" style="opacity: 1;" transform="translate(472.5,0)"><line y2="6" x2="0" style="shape-rendering: crispedges; fill: none; stroke: rgb(204, 204, 204);"></line><text dy=".71em" style="text-anchor: middle;" y="9" x="0">q</text></g><g class="tick" style="opacity: 1;" transform="translate(500.5,0)"><line y2="6" x2="0" style="shape-rendering: crispedges; fill: none; stroke: rgb(204, 204, 204);"></line><text dy=".71em" style="text-anchor: middle;" y="9" x="0">r</text></g><g class="tick" style="opacity: 1;" transform="translate(528.5,0)"><line y2="6" x2="0" style="shape-rendering: crispedges; fill: none; stroke: rgb(204, 204, 204);"></line><text dy=".71em" style="text-anchor: middle;" y="9" x="0">s</text></g><g class="tick" style="opacity: 1;" transform="translate(556.5,0)"><line y2="6" x2="0" style="shape-rendering: crispedges; fill: none; stroke: rgb(204, 204, 204);"></line><text dy=".71em" style="text-anchor: middle;" y="9" x="0">t</text></g><g class="tick" style="opacity: 1;" transform="translate(584.5,0)"><line y2="6" x2="0" style="shape-rendering: crispedges; fill: none; stroke: rgb(204, 204, 204);"></line><text dy=".71em" style="text-anchor: middle;" y="9" x="0">u</text></g><g class="tick" style="opacity: 1;" transform="translate(612.5,0)"><line y2="6" x2="0" style="shape-rendering: crispedges; fill: none; stroke: rgb(204, 204, 204);"></line><text dy=".71em" style="text-anchor: middle;" y="9" x="0">v</text></g><g class="tick" style="opacity: 1;" transform="translate(640.5,0)"><line y2="6" x2="0" style="shape-rendering: crispedges; fill: none; stroke: rgb(204, 204, 204);"></line><text dy=".71em" style="text-anchor: middle;" y="9" x="0">w</text></g><g class="tick" style="opacity: 1;" transform="translate(668.5,0)"><line y2="6" x2="0" style="shape-rendering: crispedges; fill: none; stroke: rgb(204, 204, 204);"></line><text dy=".71em" style="text-anchor: middle;" y="9" x="0">x</text></g><g class="tick" style="opacity: 1;" transform="translate(696.5,0)"><line y2="6" x2="0" style="shape-rendering: crispedges; fill: none; stroke: rgb(204, 204, 204);"></line><text dy=".71em" style="text-anchor: middle;" y="9" x="0">y</text></g><g class="tick" style="opacity: 1;" transform="translate(724.5,0)"><line y2="6" x2="0" style="shape-rendering: crispedges; fill: none; stroke: rgb(204, 204, 204);"></line><text dy=".71em" style="text-anchor: middle;" y="9" x="0">z</text></g><path class="domain" d="M0,6V0H750V6" style="shape-rendering: crispedges; fill: none; stroke: rgb(204, 204, 204);"></path></g></svg>